,
  Hottest scene tracker on the net !!!   http://www.scenetime.com
 
    seed back for speed


 



...................................NFO:.................................................                                                                                                     
       
     
     
       
       
     
     
                                         
                                         
                EXVID                    
                                         
         
                                         
         Filled the Archives             
                                         
         
                                         
                With:                    
                                         
         
                                         
                                    
     E240                           
                                    
     SP               (C) 2009      
                                         
     
     
     
                                                                                  
                                                                                   
                      Loft.2008.BDRip.XviD-EXViD                                    
                                                                                   
                                                                                  
     
                                                                                               
EXViD aims to iNTERNAL those releases which have been lost in the archives.
EXViD aims to PRE non-internal releases which have poor sources and are likely skipped by others. 
http://www.imdb.com/title/tt0926762/
Subtitles: NL, NL FD, NL HI, EN, FR
Date: 2011.04

Director: Erik Van Looy

Genres:
Crime | Drama | Mystery | Romance | Thriller

Plot:
5 friends who are all married and know each other very well decide to rent a loft together. In
this loft they meet their mistresses. Everything is OK until one morning the body of an unknown
young woman is found in the loft. The 5 friends begin to suspect each other of murder. And it
becomes clear that they don't know each other as good as they always thought.

Cast:
Credited cast:
Koen De Bouw 	... 	Chris Van Outryve 
Filip Peeters 	... 	Vincent Stevens 
Matthias Schoenaerts 	... 	Filip Willems 
Bruno Vanden Broucke 	... 	Luc Seynaeve 
Koen De Graeve 	... 	Marnix Laureys 
Veerle Baetens 	... 	Ann Marai 
Tine Reymer 	... 	Barbara Stevens 
An Miller 	... 	Ellen Van Outryve 
Charlotte Vandermeersch 	... 	Vicky Willems 
Wine Dierickx 	... 	Elsie Seynaeve 
Maaike Cafmeyer 	... 	Miriam Laureys 
Marie Vinck 	... 	Sarah Delporte 
Jan Decleir 	... 	Ludwig Tyberghein 
Gene Bervoets 	... 	Burgemeester Van Esbroeck 
Sara de Roo 	... 	Vrouwelijke ondervrager

Stats:
Format                           : AVI
Format/Info                      : Audio Video Interleave
File size                        : 1.36 GiB
Duration                         : 1h 57mn
Overall bit rate                 : 1 656 Kbps
Writing application              : VirtualDubMod 1.5.10.2 (build 2540/release)
Writing library                  : VirtualDubMod build 2540/release

Video
ID                               : 0
Format                           : MPEG-4 Visual
Format profile                   : Advanced Simple@L5
Format settings, BVOP            : Yes
Format settings, QPel            : No
Format settings, GMC             : No warppoints
Format settings, Matrix          : Default (H.263)
Muxing mode                      : Packed bitstream
Codec ID                         : XVID
Codec ID/Hint                    : XviD
Duration                         : 1h 57mn
Bit rate                         : 1 199 Kbps
Width                            : 640 pixels
Height                           : 272 pixels
Display aspect ratio             : 2.35:1
Frame rate                       : 24.000 fps
Color space                      : YUV
Chroma subsampling               : 4:2:0
Bit depth                        : 8 bits
Scan type                        : Progressive
Bits/(Pixel*Frame)               : 0.287
Stream size                      : 1 009 MiB (72%)
Writing library                  : XviD 62

Audio
ID                               : 1
Format                           : AC-3
Format/Info                      : Audio Coding 3
Mode extension                   : CM (complete main)
Codec ID                         : 2000
Duration                         : 1h 57mn
Bit rate mode                    : Constant
Bit rate                         : 448 Kbps
Channel(s)                       : 6 channels
Channel positions                : Front: L C R, Side: L R, LFE
Sampling rate                    : 48.0 KHz
Bit depth                        : 16 bits
Stream size                      : 377 MiB (27%)
Alignment                        : Split accross interleaves
Interleave, duration             : 42 ms (1.00 video frame)
Interleave, preload duration     : 500 ms




Release notes:
The director is currently working on making a hollywood remake: http://www.imdb.com/title/tt1850397/

Enjoy one of the best Belgian movies ever. It was also the highest grossing Belgian movie ever
at the box office.

English .srt subs included to fit on disc.

Looking for:
75TB+ Archives
DUTCH/FLEMiSH Archives
                                                                                                    
Greets: CRBS EPiSODE FiCO FLS iLS KLASSiGER LiPSYNC MADE NODLABS RUNNER SPRiNTER      
   

                                                                    ASCII DONE BY XX^NFO 2oo9